<svg width="38" height="38" viewBox="0 0 38 38" fill="none" xmlns="http://www.w3.org/2000/svg">
<path d="M24.25 15.1H23.375V14.25C23.375 11.9066 21.4124 10 19 10C16.5876 10 14.625 11.9066 14.625 14.25V15.1H13.75C13.2859 15.1 12.8408 15.2791 12.5126 15.5979C12.1844 15.9167 12 16.3491 12 16.8V25.3C12 25.7509 12.1844 26.1833 12.5126 26.5021C12.8408 26.8209 13.2859 27 13.75 27H24.25C24.7141 27 25.1592 26.8209 25.4874 26.5021C25.8156 26.1833 26 25.7509 26 25.3V16.8C26 16.3491 25.8156 15.9167 25.4874 15.5979C25.1592 15.2791 24.7141 15.1 24.25 15.1ZM16.375 14.25C16.375 12.8441 17.5528 11.7 19 11.7C20.4473 11.7 21.625 12.8441 21.625 14.25V15.1H16.375V14.25ZM19.875 21.6645V23.6H18.125V21.6645C17.6044 21.3705 17.25 20.8282 17.25 20.2C17.25 19.7491 17.4344 19.3167 17.7626 18.9979C18.0908 18.6791 18.5359 18.5 19 18.5C19.4641 18.5 19.9092 18.6791 20.2374 18.9979C20.5656 19.3167 20.75 19.7491 20.75 20.2C20.75 20.8273 20.3956 21.3696 19.875 21.6645Z" fill="#6D6D6D"/>
</svg>
