<svg width="24" height="24" viewBox="0 0 24 24" fill="none" xmlns="http://www.w3.org/2000/svg">
<path d="M19.2 5H4.8C3.81 5 3 5.7875 3 6.75V17.25C3 18.2125 3.81 19 4.8 19H19.2C20.19 19 21 18.2125 21 17.25V6.75C21 5.7875 20.19 5 19.2 5ZM18.84 8.71875L12.954 12.2975C12.369 12.6562 11.631 12.6562 11.046 12.2975L5.16 8.71875C5.06975 8.6695 4.99073 8.60295 4.9277 8.52315C4.86467 8.44334 4.81896 8.35193 4.79332 8.25445C4.76768 8.15697 4.76265 8.05544 4.77854 7.95602C4.79443 7.85659 4.8309 7.76134 4.88575 7.67601C4.9406 7.59069 5.01269 7.51707 5.09765 7.45962C5.18262 7.40217 5.27868 7.36207 5.38005 7.34176C5.48141 7.32145 5.58595 7.32135 5.68736 7.34145C5.78876 7.36156 5.88492 7.40147 5.97 7.45875L12 11.125L18.03 7.45875C18.1151 7.40147 18.2112 7.36156 18.3126 7.34145C18.414 7.32135 18.5186 7.32145 18.62 7.34176C18.7213 7.36207 18.8174 7.40217 18.9023 7.45962C18.9873 7.51707 19.0594 7.59069 19.1142 7.67601C19.1691 7.76134 19.2056 7.85659 19.2215 7.95602C19.2373 8.05544 19.2323 8.15697 19.2067 8.25445C19.181 8.35193 19.1353 8.44334 19.0723 8.52315C19.0093 8.60295 18.9302 8.6695 18.84 8.71875Z" fill="#6D6D6D"/>
</svg>
